<svg xmlns="http://www.w3.org/2000/svg" xmlns:svgjs="http://svgjs.com/svgjs" xmlns:xlink="http://www.w3.org/1999/xlink" width="288" height="288"><svg xmlns="http://www.w3.org/2000/svg" width="288" height="288" enable-background="new 0 0 58 58" viewBox="0 0 58 58"><path fill="#fff" d="M32,0c-1.021,0-2.026,0.076-3.015,0.21C27.953,0.072,26.972,0,26,0c-4.883,0-9.449,1.572-13.33,4.29
		c-0.001,0.001-0.003,0.002-0.004,0.003c-1.968,1.379-3.758,3.055-5.326,4.97C7.293,9.306,7.258,9.356,7.22,9.407
		c-1.484,1.838-2.76,3.896-3.791,6.122c-0.028,0.05-0.051,0.1-0.07,0.155c-0.71,1.556-1.303,3.191-1.759,4.895
		c-0.045,0.096-0.065,0.201-0.078,0.311C0.861,23.465,0.5,26.185,0.5,29c0,4.403,0.871,8.577,2.422,12.319
		C2.936,41.361,2.95,41.4,2.97,41.439c0.928,2.214,2.097,4.273,3.466,6.136c0.037,0.051,0.067,0.105,0.113,0.148
		c1.389,1.864,2.982,3.524,4.738,4.94c0.051,0.057,0.113,0.099,0.176,0.143C15.59,56.076,20.6,58,26,58
		c0.972,0,1.953-0.072,2.985-0.21C29.974,57.924,30.979,58,32,58c14.061,0,25.5-13.009,25.5-29S46.061,0,32,0z M21.419,2.625
		c-0.318,0.166-0.632,0.338-0.943,0.518c-0.189,0.109-0.38,0.216-0.566,0.33C19.636,3.642,19.368,3.82,19.1,4h-1.926
		c1.462-0.684,2.988-1.224,4.579-1.559C21.64,2.498,21.532,2.566,21.419,2.625z M11.36,46H7.773c-0.882-1.246-1.665-2.585-2.345-4
		h3.788c0.157,0.355,0.319,0.706,0.488,1.052c0.072,0.148,0.148,0.293,0.222,0.439c0.206,0.404,0.42,0.801,0.642,1.192
		c0.081,0.144,0.16,0.289,0.243,0.431C10.988,45.415,11.173,45.708,11.36,46z M4.968,17h3.827c-0.176,0.438-0.342,0.881-0.498,1.329
		c-0.043,0.123-0.086,0.245-0.128,0.368C8.024,19.127,7.89,19.561,7.763,20H3.857C4.175,18.969,4.547,17.969,4.968,17z M2.5,29
		c0-0.674,0.036-1.338,0.078-2h3.987c-0.001,0.016-0.001,0.032-0.002,0.048C6.526,27.694,6.5,28.343,6.5,29
		c0,0.335,0.012,0.667,0.022,1H2.539C2.528,29.666,2.5,29.337,2.5,29z M6.636,32c0.038,0.421,0.087,0.839,0.141,1.255
		c0.004,0.03,0.006,0.061,0.01,0.092C6.861,33.903,6.951,34.454,7.052,35H3.108c-0.195-0.982-0.349-1.981-0.448-3H6.636z M7.256,22
		c-0.026,0.119-0.048,0.239-0.073,0.358c-0.027,0.131-0.054,0.261-0.08,0.392c-0.122,0.628-0.231,1.261-0.316,1.903
		c-0.004,0.03-0.006,0.061-0.01,0.092C6.766,24.83,6.759,24.915,6.748,25H2.779c0.132-1.018,0.299-2.022,0.528-3H7.256z M7.495,37
		c0.031,0.123,0.06,0.247,0.093,0.37c0.011,0.043,0.021,0.087,0.033,0.13c0.165,0.61,0.35,1.21,0.549,1.802
		c0.041,0.123,0.085,0.245,0.128,0.368c0.038,0.11,0.075,0.22,0.114,0.329H4.558c-0.379-0.971-0.705-1.973-0.983-3H7.495z
		 M10.811,12.885c-0.083,0.142-0.162,0.287-0.243,0.431c-0.222,0.391-0.436,0.789-0.642,1.192c-0.074,0.146-0.15,0.291-0.222,0.439
		C9.695,14.965,9.686,14.982,9.678,15H5.929c0.757-1.427,1.629-2.762,2.596-4h3.503c-0.122,0.175-0.245,0.348-0.363,0.526
		C11.37,11.969,11.084,12.422,10.811,12.885z M13.731,6h2.763C16.247,6.216,16,6.434,15.759,6.66
		c-0.203,0.192-0.4,0.391-0.598,0.589c-0.196,0.197-0.39,0.396-0.58,0.6c-0.186,0.199-0.373,0.396-0.554,0.6
		C13.868,8.629,13.716,8.815,13.561,9h-3.302C11.333,7.883,12.492,6.876,13.731,6z M9.324,48h3.432
		c0.113,0.148,0.225,0.297,0.341,0.442c0.302,0.379,0.612,0.749,0.931,1.109c0.181,0.205,0.367,0.402,0.554,0.6
		c0.191,0.203,0.384,0.403,0.58,0.6c0.081,0.082,0.159,0.169,0.241,0.249h-3.008C11.297,50.101,10.27,49.097,9.324,48z
		 M21.753,55.559c-2.293-0.483-4.46-1.369-6.47-2.559h2.419c0.125,0.096,0.253,0.187,0.379,0.281
		c0.213,0.158,0.424,0.317,0.641,0.468c0.389,0.271,0.785,0.531,1.187,0.778c0.187,0.115,0.377,0.221,0.566,0.33
		c0.311,0.18,0.625,0.353,0.943,0.518C21.532,55.434,21.64,55.502,21.753,55.559z M32,56c-0.794,0-1.579-0.047-2.354-0.136
		l-0.397-0.055c-0.049-0.007-0.098-0.015-0.147-0.021c-0.348-0.049-0.693-0.107-1.036-0.173c-0.025-0.005-0.049-0.01-0.074-0.015
		c-0.335-0.066-0.667-0.139-0.996-0.221c-0.044-0.011-0.087-0.023-0.13-0.035c-0.309-0.079-0.616-0.163-0.92-0.256
		c-0.082-0.025-0.162-0.054-0.243-0.08c-0.265-0.084-0.529-0.17-0.789-0.265c-0.185-0.067-0.367-0.142-0.549-0.214
		c-0.156-0.061-0.313-0.119-0.467-0.184c-5.376-2.276-9.834-6.748-12.546-12.464c-0.024-0.052-0.047-0.104-0.071-0.156
		c-0.146-0.312-0.288-0.628-0.423-0.948c-0.053-0.125-0.102-0.252-0.153-0.378c-0.102-0.25-0.202-0.501-0.298-0.755
		c-0.06-0.161-0.117-0.324-0.175-0.487c-0.079-0.223-0.157-0.447-0.232-0.674c-0.06-0.183-0.117-0.367-0.173-0.552
		c-0.065-0.212-0.128-0.425-0.189-0.64c-0.055-0.195-0.107-0.391-0.158-0.587c-0.055-0.21-0.107-0.422-0.157-0.635
		c-0.048-0.201-0.094-0.403-0.137-0.607c-0.046-0.213-0.088-0.428-0.129-0.643c-0.039-0.204-0.078-0.409-0.113-0.614
		c-0.038-0.222-0.071-0.446-0.104-0.671c-0.03-0.201-0.06-0.401-0.086-0.604c-0.031-0.24-0.055-0.483-0.08-0.725
		c-0.02-0.189-0.042-0.377-0.058-0.567c-0.024-0.278-0.04-0.558-0.056-0.839c-0.009-0.158-0.022-0.314-0.029-0.472
		C8.511,29.889,8.5,29.446,8.5,29s0.011-0.889,0.029-1.33c0.007-0.158,0.02-0.315,0.029-0.472c0.016-0.28,0.032-0.561,0.056-0.839
		c0.016-0.19,0.038-0.378,0.058-0.567c0.025-0.242,0.05-0.485,0.08-0.725c0.026-0.202,0.057-0.403,0.086-0.604
		c0.033-0.224,0.067-0.448,0.104-0.671c0.035-0.206,0.074-0.41,0.113-0.614c0.041-0.215,0.084-0.43,0.129-0.643
		c0.044-0.203,0.09-0.405,0.137-0.607c0.05-0.213,0.103-0.424,0.157-0.635c0.051-0.197,0.103-0.392,0.158-0.587
		c0.06-0.215,0.124-0.428,0.189-0.64C9.884,19.884,9.94,19.699,10,19.517c0.074-0.226,0.152-0.45,0.232-0.674
		c0.058-0.163,0.114-0.326,0.175-0.487c0.095-0.254,0.196-0.505,0.298-0.755c0.051-0.126,0.1-0.253,0.153-0.378
		c0.135-0.32,0.277-0.635,0.423-0.948c0.024-0.052,0.046-0.105,0.071-0.156c2.712-5.717,7.171-10.189,12.546-12.464
		c0.154-0.065,0.311-0.122,0.467-0.184c0.183-0.072,0.365-0.147,0.549-0.214c0.261-0.094,0.525-0.181,0.789-0.265
		c0.081-0.026,0.162-0.055,0.243-0.08c0.304-0.093,0.611-0.177,0.92-0.256c0.044-0.011,0.087-0.024,0.13-0.035
		c0.329-0.082,0.661-0.155,0.996-0.221c0.025-0.005,0.049-0.01,0.074-0.015c0.343-0.066,0.688-0.124,1.036-0.173
		c0.049-0.007,0.098-0.015,0.147-0.021l0.397-0.055C30.421,2.047,31.206,2,32,2c12.958,0,23.5,12.112,23.5,27S44.958,56,32,56z" class="color000 svgShape"/><path fill="#fff" d="M32 8.476c.606 0 1.219.036 1.818.105.04.005.079.007.117.007.501 0 .933-.375.992-.884.064-.548-.329-1.045-.877-1.109-.673-.079-1.358-.119-2.068-.119-.004 0-.008 0-.012 0l-.013 1v-1c-.553 0-.979.447-.979 1C30.979 8.029 31.447 8.476 32 8.476zM24.329 10.337c.152 0 .308-.035.453-.109.558-.284 1.133-.538 1.709-.753.517-.193.779-.77.586-1.287-.193-.518-.767-.781-1.287-.586-.646.242-1.291.526-1.916.845-.492.25-.688.853-.437 1.345C23.614 10.138 23.965 10.337 24.329 10.337zM49.135 23.292c.113.454.521.757.969.757.081 0 .162-.01.244-.03.536-.135.861-.678.727-1.213-.167-.665-.364-1.332-.587-1.982-.18-.522-.748-.801-1.271-.621-.522.179-.801.748-.622 1.271C48.8 22.07 48.981 22.682 49.135 23.292zM47.731 15.277c-.387-.571-.805-1.13-1.242-1.662-.352-.426-.98-.487-1.408-.137-.426.351-.487.981-.137 1.408.398.484.779.993 1.131 1.513.193.286.509.439.829.439.193 0 .388-.056.56-.172C47.921 16.355 48.041 15.734 47.731 15.277zM32 49.524c-.621 0-1.247-.037-1.857-.11-.561-.056-1.047.327-1.112.875-.065.548.326 1.046.874 1.112.69.082 1.396.124 2.096.124h.084c.553 0 .958-.448.958-1S32.553 49.524 32 49.524zM45.021 43.02c-.397.488-.82.96-1.259 1.404-.388.393-.384 1.026.01 1.414.194.192.448.289.702.289.258 0 .516-.099.712-.297.482-.489.948-1.009 1.386-1.546.349-.429.284-1.059-.145-1.407S45.37 42.593 45.021 43.02zM39.252 47.754c-.555.285-1.129.54-1.706.757-.517.194-.778.771-.583 1.288.15.401.531.648.936.648.117 0 .236-.021.353-.065.648-.244 1.293-.53 1.915-.849.491-.252.685-.855.433-1.346C40.348 47.696 39.745 47.5 39.252 47.754zM41.857 9.45c-.585-.382-1.194-.733-1.812-1.044-.494-.249-1.095-.05-1.343.443-.249.493-.051 1.095.442 1.343.552.278 1.097.592 1.62.933.168.11.357.163.545.163.326 0 .646-.16.839-.454C42.451 10.372 42.32 9.752 41.857 9.45zM50.833 27.968c-.553 0-1 .479-1 1.032 0 .618-.023 1.236-.07 1.839-.043.551.369 1.032.92 1.074.026.002.053.003.078.003.518 0 .955-.398.996-.923.051-.654.076-1.325.076-1.994v-.064C51.833 28.384 51.386 27.968 50.833 27.968zM14.167 29c0-.623.025-1.256.074-1.88.043-.551-.368-1.032-.919-1.076-.544-.036-1.032.368-1.075.918-.053.676-.08 1.362-.08 2.037v.021c0 .552.447.989 1 .989S14.167 29.552 14.167 29zM49.901 35.783c-.522-.175-1.09.105-1.267.628-.202.598-.432 1.193-.683 1.77-.221.506.012 1.096.518 1.316.13.057.266.083.398.083.387 0 .754-.225.918-.601.273-.629.523-1.278.743-1.93C50.706 36.527 50.425 35.96 49.901 35.783zM15.55 18.465c-.51-.226-1.096.008-1.317.514-.274.626-.526 1.275-.748 1.929-.177.523.104 1.091.626 1.269.106.036.215.053.321.053.417 0 .806-.263.947-.679.203-.6.434-1.195.686-1.768C16.286 19.277 16.056 18.687 15.55 18.465zM17.902 41.567c-.31-.458-.93-.578-1.389-.269-.457.31-.577.931-.268 1.389.392.579.808 1.139 1.238 1.664.198.241.484.366.774.366.223 0 .447-.074.633-.227.428-.351.489-.98.14-1.408C18.64 42.605 18.26 42.095 17.902 41.567zM14.855 34.668c-.134-.536-.679-.863-1.212-.729-.536.133-.862.676-.729 1.212.166.666.363 1.333.585 1.983.142.416.53.677.946.677.107 0 .216-.018.323-.054.522-.179.802-.747.623-1.27C15.187 35.892 15.008 35.28 14.855 34.668zM18.846 12.14c-.482.486-.95 1.006-1.39 1.544-.35.428-.286 1.058.142 1.407.186.152.41.226.632.226.29 0 .578-.125.775-.367.399-.489.823-.96 1.261-1.401.389-.392.387-1.025-.006-1.414C19.868 11.746 19.235 11.747 18.846 12.14zM24.818 47.791c-.552-.28-1.097-.596-1.618-.938-.462-.303-1.081-.172-1.385.289-.302.462-.173 1.082.289 1.384.583.382 1.191.734 1.81 1.048.145.074.299.108.451.108.365 0 .717-.2.893-.547C25.508 48.643 25.312 48.041 24.818 47.791zM37.896 28.805c-1.01-.5-2.146-.916-3.375-1.236-.71-.186-1.219-.319-1.526-.401v-8.936c.454.09.886.223 1.291.396 1.654.677 2.625 1.645 3.739 2.877v2.082c0 .6.387.987.987.987S40 24.187 40 23.587v-6.169c0-.6-.388-.987-.987-.987s-.987.388-.987.987l0 1.315c-.229-.179-.075-.385-.402-.618-1.259-.902-2.814-1.529-4.629-1.866V14.82c0-.6-.387-.987-.987-.987s-.987.388-.987.987v1.289c-2.561.043-4.482.631-5.713 1.75-1.293 1.177-1.949 2.765-1.949 4.721 0 1.037.301 1.968.894 2.766.576.776 1.401 1.433 2.453 1.952.951.471 2.401.978 4.316 1.509v9.564c-.52-.089-1-.216-1.432-.38-1.771-.676-2.56-1.095-3.615-2.241v-2.243c0-.6-.388-.987-.987-.987S24 32.907 24 33.507v6.169c0 .6.387.987.987.987s.987-.388.987-.987v-1.316c1.727 1.385 2.996 1.723 5.047 2.005v1.405c0 .6.388.987.987.987s.987-.388.987-.987v-1.287c2.586-.031 4.611-.649 6.023-1.837 1.476-1.24 2.224-2.932 2.224-5.025 0-1.101-.301-2.063-.894-2.863C39.772 29.981 38.947 29.325 37.896 28.805zM31.021 26.617c-.344-.102-.722-.212-1.132-.329-.656-.188-1.365-.452-2.107-.787-.696-.313-1.292-.76-1.771-1.328-.456-.539-.677-1.155-.677-1.885 0-1.179.463-2.148 1.416-2.965.916-.784 2.352-1.2 4.272-1.24V26.617zM38.375 37.88c-.017.014-.038.024-.055.037.145-.118.285-.24.414-.367C38.622 37.664 38.502 37.773 38.375 37.88zM37.654 37.175c-1.068.856-2.635 1.305-4.658 1.334v-9.165l1.574.439c.75.209 1.507.484 2.25.818.696.313 1.292.761 1.771 1.327.456.541.678 1.157.678 1.886C39.269 35.204 38.74 36.304 37.654 37.175z" class="color000 svgShape"/></svg></svg>